<?xml version="1.0" standalone="no"?>
<!DOCTYPE svg PUBLIC "-//W3C//DTD SVG 20010904//EN"
 "http://www.w3.org/TR/2001/REC-SVG-20010904/DTD/svg10.dtd">
<svg version="1.0" xmlns="http://www.w3.org/2000/svg"
 width="512.000000pt" height="512.000000pt" viewBox="0 0 512.000000 512.000000"
 preserveAspectRatio="xMidYMid meet">
<metadata>
Created by potrace 1.14, written by Peter Selinger 2001-2017
</metadata>
<g transform="translate(0.000000,512.000000) scale(0.100000,-0.100000)"
fill="#000000" stroke="none">
<path d="M1810 5100 c-37 -37 -21 -94 33 -113 26 -10 65 12 75 43 23 64 -60
118 -108 70z"/>
<path d="M3407 5102 c-14 -15 -17 -41 -17 -139 0 -103 3 -122 18 -136 25 -23
59 -21 72 2 5 11 10 74 10 140 0 95 -3 123 -16 135 -21 21 -47 20 -67 -2z"/>
<path d="M3757 4852 c-94 -94 -105 -120 -63 -147 33 -22 43 -15 144 89 71 72
82 89 76 108 -3 13 -12 26 -18 30 -29 19 -56 4 -139 -80z"/>
<path d="M1240 4764 c-16 -47 -88 -120 -129 -129 -35 -7 -52 -25 -24 -25 47 0
134 -78 154 -138 l11 -32 25 50 c29 58 84 107 130 116 38 7 36 19 -4 27 -43 9
-103 65 -128 120 l-23 49 -12 -38z"/>
<path d="M2407 4724 c-1 -1 -49 -4 -107 -7 -168 -10 -331 -67 -454 -159 -43
-32 -56 -37 -81 -32 -67 16 -125 -3 -164 -53 -56 -73 -278 -436 -303 -495 -64
-158 -64 -289 0 -533 24 -93 45 -183 47 -200 3 -42 -9 -69 -139 -304 -63 -113
-131 -237 -152 -276 -20 -38 -46 -86 -57 -105 -11 -19 -38 -69 -60 -110 -22
-41 -51 -92 -64 -112 -12 -21 -23 -40 -23 -43 0 -3 -47 -89 -104 -193 -57
-103 -120 -218 -141 -257 -21 -38 -57 -104 -80 -145 -23 -41 -44 -79 -46 -85
-2 -5 -21 -39 -41 -75 -47 -82 -67 -158 -62 -236 8 -147 110 -283 249 -331 57
-19 160 -26 204 -13 17 5 63 11 103 15 40 3 89 8 108 10 19 2 73 6 120 10 47
3 101 8 120 10 125 15 158 16 165 5 4 -6 7 -212 7 -457 0 -493 1 -504 59 -535
32 -17 84 -18 1052 -18 920 0 1022 2 1046 16 57 34 56 20 58 523 1 369 5 466
15 473 12 7 51 6 163 -7 22 -2 76 -7 120 -11 44 -4 91 -8 105 -9 14 -1 63 -6
109 -10 46 -4 97 -11 114 -16 48 -14 167 -3 222 21 132 57 220 180 230 323 7
106 -8 140 -235 552 -9 17 -32 57 -50 90 -18 33 -56 103 -85 155 -29 52 -69
127 -90 165 -21 39 -59 108 -85 155 -26 47 -62 112 -80 145 -64 119 -111 203
-224 410 -64 115 -117 219 -118 230 0 11 -2 27 -2 35 -1 8 6 47 16 85 10 39
20 77 23 85 48 188 55 230 54 322 -2 113 -28 223 -71 299 -23 42 -231 373
-263 418 -37 54 -76 77 -141 84 -27 3 -75 12 -107 20 -74 20 -182 15 -260 -11
l-58 -20 -51 54 c-28 30 -55 54 -60 54 -5 0 -21 9 -36 20 -34 25 -133 60 -186
66 -37 5 -225 11 -229 8z m-607 -2021 c58 -153 185 -313 311 -395 27 -17 50
-36 50 -42 4 -36 4 -123 0 -131 -3 -5 -6 -16 -7 -23 -5 -29 -56 -93 -92 -116
-121 -76 -343 -155 -540 -191 -15 -3 -38 -7 -52 -10 -14 -3 -49 -8 -77 -11
l-53 -6 14 28 c8 16 42 97 76 179 34 83 68 164 75 180 8 17 37 86 65 155 28
69 60 143 69 165 10 22 42 99 72 172 30 72 54 131 55 130 1 -1 16 -39 34 -84z
m1759 -403 c104 -250 197 -472 206 -493 9 -22 12 -37 8 -34 -4 3 -30 7 -58 11
-65 7 -299 67 -395 101 -83 30 -218 95 -261 126 -47 33 -79 112 -79 193 l0 71
47 30 c124 78 266 255 314 390 12 36 24 64 25 62 2 -1 88 -207 193 -457z"/>
<path d="M3799 4499 c-31 -31 -11 -77 36 -80 88 -5 228 1 241 11 17 15 19 66
2 77 -7 4 -68 8 -136 10 -111 1 -125 0 -143 -18z"/>
<path d="M4050 3160 c-28 -28 -26 -74 5 -98 14 -11 31 -19 38 -18 60 11 82 44
62 93 -20 47 -70 58 -105 23z"/>
<path d="M640 2591 c-14 -35 -63 -81 -86 -81 -8 0 -14 -4 -14 -10 0 -5 7 -10
17 -10 21 0 93 -75 93 -98 0 -10 7 -3 17 16 18 36 67 82 89 82 23 0 16 17 -11
24 -29 7 -63 41 -80 79 l-12 29 -13 -31z"/>
<path d="M4320 753 c-25 -9 -40 -35 -40 -70 0 -31 -2 -33 -35 -33 -61 0 -95
-58 -61 -103 12 -16 38 -24 84 -26 7 -1 12 -15 12 -35 0 -25 7 -40 26 -55 15
-12 33 -21 41 -21 25 0 63 47 63 80 0 17 5 30 13 31 47 3 62 9 79 29 10 12 18
30 18 39 0 30 -38 61 -74 61 -31 0 -34 2 -39 41 -7 55 -40 79 -87 62z"/>
<path d="M3910 180 c-39 -39 -20 -97 38 -115 32 -9 83 42 75 76 -13 54 -77 75
-113 39z"/>
</g>
</svg>
